# xmcd
#
# Track frame offsets: 
#        150
#        19050
#        37810
#
# Disc length: 753 seconds
#
# Revision: 1
# Processed by: cddbd v1.5.1PL2 Copyright (c) Steve Scherf et al.
# Submitted via: ExactAudioCopy v0.95b2
#
DISCID=1602ef03
DTITLE=Nivea - You Like It Like That
DYEAR=2004
DGENRE=R&B
TTITLE0=You Like It Like That (ft. Rasheeda) (Main Explicit)
TTITLE1=You Like It Like That (ft. Rasheeda) (Main Clean)
TTITLE2=You Like It Like That (ft. Rasheeda) (Instrumental)
EXTD=YEAR: 1996
EXTT0=
EXTT1=
EXTT2=
PLAYORDER=
